<svg width="39" height="19" viewBox="0 0 39 19" fill="none" xmlns="http://www.w3.org/2000/svg">
<path d="M7.73625 11.0137C7.29 10.5675 7.06688 10.0212 7.06688 9.375C7.06688 8.72875 7.29 8.1825 7.73625 7.73625C8.1825 7.29 8.72875 7.06687 9.375 7.06687C10.0213 7.06687 10.5675 7.29 11.0138 7.73625C11.46 8.1825 11.6831 8.72875 11.6831 9.375C11.6831 10.0212 11.46 10.5675 11.0138 11.0137C10.5675 11.46 10.0213 11.6831 9.375 11.6831C8.72875 11.6831 8.1825 11.46 7.73625 11.0137ZM9.375 18.75C6.77875 18.75 4.5675 17.8369 2.74125 16.0106C0.915001 14.1844 0.00125128 11.9725 1.28074e-06 9.375C-0.00124872 6.7775 0.912501 4.56625 2.74125 2.74125C4.57 0.91625 6.78125 0.0025 9.375 0C11.3 0 13.0363 0.521875 14.5838 1.56563C16.1313 2.60812 17.2606 3.96125 17.9719 5.625H34.6125C34.8138 5.625 35.0013 5.66 35.175 5.73C35.35 5.8 35.5188 5.91625 35.6813 6.07875L37.9181 8.31375C38.0806 8.47875 38.1956 8.64625 38.2631 8.81625C38.3281 8.9875 38.3606 9.17375 38.3606 9.375C38.3606 9.57625 38.3281 9.7625 38.2631 9.93375C38.1981 10.105 38.0831 10.2725 37.9181 10.4362L33.9488 14.3681C33.8163 14.5006 33.6644 14.6081 33.4931 14.6906C33.3231 14.7719 33.1531 14.8156 32.9831 14.8219C32.8119 14.8306 32.6406 14.8094 32.4694 14.7581C32.2994 14.7081 32.1325 14.6288 31.9688 14.52L29.7844 12.8719L27.2194 14.7431C27.0881 14.8444 26.9525 14.9144 26.8125 14.9531C26.6725 14.9919 26.5213 15.0106 26.3588 15.0094C26.1963 15.0081 26.0431 14.9831 25.8994 14.9344C25.7556 14.8856 25.6181 14.8219 25.4869 14.7431L23.0569 13.125H17.97C17.2575 14.765 16.1281 16.1125 14.5819 17.1675C13.0356 18.2225 11.3 18.75 9.375 18.75ZM9.375 16.875C11.2213 16.875 12.7963 16.3194 14.1 15.2081C15.4038 14.0969 16.2388 12.7775 16.605 11.25H23.655L26.3363 13.0631C26.3125 13.0631 26.3063 13.065 26.3175 13.0688C26.33 13.0725 26.3363 13.0706 26.3363 13.0631L29.82 10.5637L32.8594 12.855L36.3394 9.375L34.4644 7.5H16.605C16.24 5.97125 15.405 4.65188 14.1 3.54187C12.795 2.43187 11.22 1.87625 9.375 1.875C7.3125 1.875 5.54688 2.60938 4.07813 4.07813C2.60938 5.54688 1.875 7.3125 1.875 9.375C1.875 11.4375 2.60938 13.2031 4.07813 14.6719C5.54688 16.1406 7.3125 16.875 9.375 16.875Z" fill="white"/>
</svg>
