<svg width="24" height="24" viewBox="0 0 24 24" fill="none" xmlns="http://www.w3.org/2000/svg">
<g clip-path="url(#clip0_369_2)">
<path fill-rule="evenodd" clip-rule="evenodd" d="M6.90704 17.681C6.61539 17.3117 6.21303 17.0457 5.75904 16.922C5.42991 16.8335 5.08569 16.8163 4.74936 16.8714C4.41304 16.9266 4.09237 17.0529 3.80877 17.242C3.52518 17.431 3.2852 17.6784 3.10486 17.9676C2.92452 18.2568 2.80799 18.5812 2.76304 18.919C2.70428 19.4801 2.8511 20.0435 3.17625 20.5045C3.50139 20.9656 3.98278 21.293 4.53104 21.426C5.05073 21.5741 5.606 21.5342 6.09913 21.3132C6.59227 21.0922 6.99167 20.7044 7.22704 20.218C7.29517 20.076 7.35201 19.9289 7.39704 19.778C7.47259 19.4139 7.46789 19.0376 7.38327 18.6755C7.29865 18.3133 7.13614 17.974 6.90704 17.681ZM6.81704 19.549C6.77304 19.6577 6.72304 19.7643 6.66704 19.869C6.48155 20.1795 6.1939 20.4159 5.85333 20.5378C5.51276 20.6597 5.14043 20.6594 4.80004 20.537C4.48065 20.4402 4.20557 20.234 4.02306 19.9546C3.84056 19.6751 3.76231 19.3404 3.80204 19.009C3.82872 18.8095 3.89665 18.6177 4.0015 18.4459C4.10635 18.2741 4.24582 18.126 4.41104 18.011C4.57939 17.8806 4.77207 17.7852 4.97778 17.7302C5.1835 17.6753 5.39811 17.6619 5.60904 17.691C5.92904 17.738 6.22304 17.889 6.44804 18.121C7.14704 18.85 6.87704 19.409 6.81704 19.549Z" fill="#EFEFEF"/>
<path fill-rule="evenodd" clip-rule="evenodd" d="M19.1 8.88387C18.99 8.38387 18.68 7.26587 18.57 6.88687C18.7573 6.2702 18.904 5.64453 19.01 5.00987C19.1056 4.51175 19.1056 3.99999 19.01 3.50187C18.9936 3.43682 18.9646 3.37565 18.9246 3.32184C18.8845 3.26802 18.8343 3.22264 18.7767 3.18827C18.7191 3.1539 18.6553 3.13123 18.5889 3.12155C18.5226 3.11187 18.455 3.11538 18.39 3.13187L18.031 3.23187C17.192 3.50187 15.125 4.23087 14.916 4.38087C13.9612 5.25706 13.0605 6.19045 12.219 7.17587C10.412 9.17387 8.09495 11.8399 6.59795 13.5369C5.86488 13.4031 5.11261 13.4155 4.38432 13.5732C3.65602 13.7309 2.96604 14.0309 2.35395 14.4559C1.71893 14.872 1.18253 15.4219 0.782306 16.0671C0.382078 16.7122 0.127691 17.4371 0.0369525 18.1909C-0.0486479 18.883 0.0138964 19.5855 0.220437 20.2517C0.426978 20.9179 0.772795 21.5325 1.23495 22.0549C2.16908 23.0891 3.45358 23.74 4.83995 23.8819C4.88262 23.8855 4.92553 23.8789 4.96514 23.8626C5.00475 23.8464 5.03993 23.8209 5.06777 23.7884C5.09561 23.7559 5.11531 23.7172 5.12525 23.6755C5.1352 23.6339 5.13509 23.5905 5.12495 23.5489C5.11166 23.4982 5.08279 23.453 5.04242 23.4196C5.00205 23.3862 4.95221 23.3664 4.89995 23.3629C3.66608 23.207 2.53255 22.603 1.71495 21.6659C1.31416 21.2049 1.01745 20.6629 0.845056 20.0768C0.67266 19.4908 0.628625 18.8745 0.715952 18.2699C0.808022 17.6257 1.03871 17.0091 1.39211 16.4627C1.7455 15.9163 2.2132 15.453 2.76295 15.1049C3.2986 14.7423 3.90239 14.4926 4.5376 14.3707C5.1728 14.2488 5.82616 14.2574 6.45795 14.3959H6.61795C6.68732 14.4183 6.76125 14.4227 6.83279 14.4087C6.90434 14.3947 6.97115 14.3628 7.02695 14.3159C8.54495 12.6489 11.021 9.91287 12.908 7.86587C13.6887 6.95841 14.5154 6.0916 15.385 5.26887C15.565 5.15887 17.142 4.58987 18.031 4.27087C18.031 4.45087 18.031 4.65087 17.961 4.83987C17.8628 5.46431 17.7225 6.08139 17.541 6.68687C17.5172 6.78208 17.5172 6.88165 17.541 6.97687C17.541 6.97687 17.911 8.24487 18.071 8.91387L18.011 9.00387H16.383C16.1877 9.011 16.0009 9.08516 15.854 9.21387C15.7514 9.34061 15.6814 9.49052 15.65 9.65052C15.6186 9.81052 15.6268 9.97577 15.674 10.1319C15.7906 10.5459 15.9306 10.9519 16.094 11.3499C16.094 11.4399 16.154 11.5599 16.174 11.6499C16.1096 11.6768 16.0425 11.6969 15.974 11.7099C15.4889 11.6985 15.0052 11.6551 14.526 11.5799C14.4228 11.5718 14.3191 11.5718 14.216 11.5799C14.1222 11.5813 14.0315 11.6134 13.9577 11.6712C13.8839 11.7289 13.8309 11.8092 13.807 11.8999C13.7775 12.0447 13.7775 12.194 13.807 12.3389C13.897 12.7789 14.147 13.7169 14.227 14.2559C14.044 14.2358 13.8632 14.199 13.687 14.1459C12.948 13.9459 12.17 13.5869 12.03 13.5969C11.8324 13.6459 11.6544 13.754 11.52 13.9069C11.091 14.3269 10.212 15.2949 9.46295 16.1339C9.41974 16.1971 9.39662 16.2718 9.39662 16.3484C9.39662 16.4249 9.41974 16.4997 9.46295 16.5629C9.62829 16.8315 9.76495 17.1145 9.87295 17.4119C9.98629 17.6972 10.0763 17.9899 10.143 18.2899L10.213 19.0299C10.1911 19.356 10.1272 19.678 10.023 19.9879C9.92057 20.3052 9.79005 20.6128 9.63295 20.9069C9.33374 21.4615 8.93432 21.9558 8.45495 22.3649C7.97856 22.7699 7.41957 23.0661 6.81695 23.2329C6.75986 23.2489 6.70878 23.2815 6.67013 23.3265C6.63148 23.3715 6.60699 23.4269 6.59972 23.4858C6.59246 23.5446 6.60275 23.6043 6.6293 23.6574C6.65585 23.7104 6.69747 23.7544 6.74895 23.7839C6.78325 23.8033 6.82104 23.8157 6.86017 23.8206C6.89929 23.8254 6.93897 23.8224 6.97695 23.8119C7.66578 23.6147 8.30533 23.2747 8.85395 22.8139C9.39988 22.3629 9.85702 21.8142 10.202 21.1959C10.386 20.8772 10.5393 20.5445 10.662 20.1979C10.7777 19.8049 10.8416 19.3984 10.852 18.9889L10.782 18.2109C10.6601 17.6042 10.4583 17.0165 10.182 16.4629C10.882 15.7039 11.65 14.8749 12.05 14.4659L12.11 14.4159L12.25 14.4659C12.734 14.6832 13.233 14.8599 13.747 14.9959C14.075 15.0799 14.418 15.0799 14.746 14.9959C14.8563 14.9498 14.9454 14.8642 14.996 14.7559C15.0284 14.6042 15.0284 14.4475 14.996 14.2959C14.996 13.8859 14.766 13.0779 14.646 12.5089C14.906 12.5089 15.236 12.5889 15.535 12.6089C15.7639 12.6472 15.9984 12.6377 16.2235 12.5809C16.4487 12.5241 16.6596 12.4213 16.843 12.2789C16.9291 12.1494 16.984 12.0017 17.0031 11.8474C17.0222 11.693 17.005 11.5364 16.953 11.3899C16.873 11.0399 16.673 10.5919 16.553 10.2019C16.5247 10.1207 16.5046 10.037 16.493 9.95187H18.191C18.3537 9.94416 18.5125 9.89867 18.6546 9.819C18.7968 9.73934 18.9184 9.62768 19.01 9.49287C19.1032 9.30438 19.1347 9.09128 19.1 8.88387Z" fill="#EFEFEF"/>
<path d="M11.44 5.10997C11.66 5.10997 12.02 3.94097 12.769 3.27197C13.518 2.60297 14.127 2.62297 14.167 2.33297C14.357 1.16497 12.369 2.07297 11.89 2.81297C11.41 3.55197 11.161 5.03097 11.44 5.10997ZM9.90298 4.57997C9.97621 4.55723 10.0406 4.51229 10.0871 4.45139C10.1337 4.39048 10.1602 4.3166 10.163 4.23997C10.1414 3.46298 10.2457 2.68761 10.472 1.94397C11.032 0.905974 12.389 0.515974 12.299 0.245974C12.139 -0.273026 10.083 0.855974 9.72298 2.11397C9.44298 3.05197 9.58298 4.63997 9.90298 4.57997ZM20.008 10.721C19.868 10.561 20.688 9.60297 20.847 8.61397C21.037 7.44597 20.667 7.11697 20.847 6.92697C21.736 6.14797 22.035 8.30497 21.676 9.10397C21.316 9.90297 20.158 10.941 20.008 10.721ZM21.207 11.75C21.1911 11.6774 21.1969 11.6018 21.2236 11.5325C21.2502 11.4632 21.2966 11.4032 21.357 11.36C21.806 10.991 22.784 10.472 23.124 9.85297C23.703 8.85397 23.294 7.46597 23.574 7.39597C24.092 7.26597 24.252 9.59297 23.394 10.572C22.744 11.321 21.316 12 21.206 11.75" fill="#EFEFEF"/>
</g>
<defs>
<clipPath id="clip0_369_2">
<rect width="24" height="24" fill="white"/>
</clipPath>
</defs>
</svg>
