<svg width="20" height="20" viewBox="0 0 20 20" fill="none" xmlns="http://www.w3.org/2000/svg">
<path d="M10.4469 1.60645C10.1656 1.46582 9.83438 1.46582 9.55313 1.60645L1.55313 5.60645C1.05938 5.85332 0.859383 6.45332 1.10626 6.94707C1.35313 7.44082 1.95313 7.64082 2.44688 7.39395L10 3.61895L17.5531 7.39395C18.0469 7.64082 18.6469 7.44082 18.8938 6.94707C19.1406 6.45332 18.9406 5.85332 18.4469 5.60645L10.4469 1.60645ZM10 10.5002C10.9656 10.5002 11.75 9.71582 11.75 8.7502C11.75 7.78457 10.9656 7.0002 10 7.0002C9.03438 7.0002 8.25001 7.78457 8.25001 8.7502C8.25001 9.71582 9.03438 10.5002 10 10.5002ZM10 12.0002C8.34376 12.0002 7.00001 13.3439 7.00001 15.0002V16.0002C7.00001 16.5533 7.44688 17.0002 8.00001 17.0002H12C12.5531 17.0002 13 16.5533 13 16.0002V15.0002C13 13.3439 11.6563 12.0002 10 12.0002ZM6.00001 10.0002C6.00001 9.17207 5.32813 8.5002 4.50001 8.5002C3.67188 8.5002 3.00001 9.17207 3.00001 10.0002C3.00001 10.8283 3.67188 11.5002 4.50001 11.5002C5.32813 11.5002 6.00001 10.8283 6.00001 10.0002ZM17 10.0002C17 9.17207 16.3281 8.5002 15.5 8.5002C14.6719 8.5002 14 9.17207 14 10.0002C14 10.8283 14.6719 11.5002 15.5 11.5002C16.3281 11.5002 17 10.8283 17 10.0002ZM4.50001 12.5002C3.11876 12.5002 2.00001 13.6189 2.00001 15.0002V16.0346C2.00001 16.5658 2.43126 17.0002 2.96563 17.0002H5.70938C5.57501 16.6939 5.50001 16.3564 5.50001 16.0002V14.5002C5.50001 13.9252 5.60938 13.3752 5.80626 12.8689C5.42501 12.6346 4.97813 12.5002 4.50001 12.5002ZM14.2938 17.0002H17.0375C17.5688 17.0002 18.0031 16.5689 18.0031 16.0346V15.0002C18.0031 13.6189 16.8844 12.5002 15.5031 12.5002C15.025 12.5002 14.5781 12.6346 14.1969 12.8689C14.3938 13.3752 14.5031 13.9252 14.5031 14.5002V16.0002C14.5031 16.3564 14.4281 16.6939 14.2938 17.0002Z" fill="#F0F0F0"/>
</svg>
