<svg width="26" height="17" viewBox="0 0 26 17" fill="none" xmlns="http://www.w3.org/2000/svg">
<path fill-rule="evenodd" clip-rule="evenodd" d="M18.1146 5.39583C18.5235 5.39583 18.9156 5.23341 19.2047 4.94429C19.4938 4.65517 19.6562 4.26304 19.6562 3.85417C19.6562 3.44529 19.4938 3.05316 19.2047 2.76404C18.9156 2.47493 18.5235 2.3125 18.1146 2.3125C17.7057 2.3125 17.3136 2.47493 17.0245 2.76404C16.7353 3.05316 16.5729 3.44529 16.5729 3.85417C16.5729 4.26304 16.7353 4.65517 17.0245 4.94429C17.3136 5.23341 17.7057 5.39583 18.1146 5.39583ZM18.1146 7.70833C19.1368 7.70833 20.1171 7.30227 20.8399 6.57947C21.5627 5.85668 21.9687 4.87636 21.9687 3.85417C21.9687 2.83198 21.5627 1.85166 20.8399 1.12886C20.1171 0.406063 19.1368 0 18.1146 0C17.0924 0 16.1121 0.406063 15.3893 1.12886C14.6665 1.85166 14.2604 2.83198 14.2604 3.85417C14.2604 4.87636 14.6665 5.85668 15.3893 6.57947C16.1121 7.30227 17.0924 7.70833 18.1146 7.70833ZM14.6458 16.9583V13.875C14.6458 12.7506 14.1992 11.6722 13.4041 10.8772C12.609 10.0821 11.5307 9.63542 10.4062 9.63542H4.23958C3.11518 9.63542 2.03682 10.0821 1.24174 10.8772C0.446669 11.6722 0 12.7506 0 13.875V16.9583H2.3125V13.875C2.3125 12.8113 3.17583 11.9479 4.23958 11.9479H10.4062C11.47 11.9479 12.3333 12.8113 12.3333 13.875V16.9583H14.6458ZM25.4375 13.875V16.9583H23.125V13.875C23.125 12.8113 22.2617 11.9479 21.1979 11.9479H17.3437V9.63542H21.1979C22.3223 9.63542 23.4007 10.0821 24.1958 10.8772C24.9908 11.6722 25.4375 12.7506 25.4375 13.875ZM8.86458 3.85417C8.86458 4.26304 8.70216 4.65517 8.41304 4.94429C8.12392 5.23341 7.73179 5.39583 7.32292 5.39583C6.91404 5.39583 6.52191 5.23341 6.23279 4.94429C5.94368 4.65517 5.78125 4.26304 5.78125 3.85417C5.78125 3.44529 5.94368 3.05316 6.23279 2.76404C6.52191 2.47493 6.91404 2.3125 7.32292 2.3125C7.73179 2.3125 8.12392 2.47493 8.41304 2.76404C8.70216 3.05316 8.86458 3.44529 8.86458 3.85417ZM11.1771 3.85417C11.1771 4.87636 10.771 5.85668 10.0482 6.57947C9.32543 7.30227 8.34511 7.70833 7.32292 7.70833C6.30073 7.70833 5.32041 7.30227 4.59761 6.57947C3.87481 5.85668 3.46875 4.87636 3.46875 3.85417C3.46875 2.83198 3.87481 1.85166 4.59761 1.12886C5.32041 0.406063 6.30073 0 7.32292 0C8.34511 0 9.32543 0.406063 10.0482 1.12886C10.771 1.85166 11.1771 2.83198 11.1771 3.85417Z" fill="white"/>
</svg>
