<svg width="24" height="24" viewBox="0 0 24 24" fill="none" xmlns="http://www.w3.org/2000/svg">
<path d="M6.126 12.874C5.888 12.636 5.769 12.3447 5.769 12C5.769 11.6553 5.888 11.364 6.126 11.126C6.364 10.888 6.65533 10.769 7 10.769C7.34467 10.769 7.636 10.888 7.874 11.126C8.112 11.364 8.231 11.6553 8.231 12C8.231 12.3447 8.112 12.636 7.874 12.874C7.636 13.112 7.34467 13.231 7 13.231C6.65533 13.231 6.364 13.112 6.126 12.874ZM7 17C5.61533 17 4.436 16.513 3.462 15.539C2.488 14.565 2.00067 13.3853 2 12C1.99933 10.6147 2.48667 9.43533 3.462 8.462C4.43733 7.48867 5.61667 7.00133 7 7C8.02667 7 8.95267 7.27833 9.778 7.835C10.6033 8.391 11.2057 9.11267 11.585 10H20.789L22.789 12L19.596 15.154L17.884 13.866L16.077 15.192L14.298 14H11.585C11.205 14.8747 10.6027 15.5933 9.778 16.156C8.95333 16.7187 8.02733 17 7 17ZM7 16C7.98467 16 8.82467 15.7037 9.52 15.111C10.2153 14.5183 10.6607 13.8147 10.856 13H14.616L16.046 13.967L17.904 12.634L19.525 13.856L21.381 12L20.381 11H10.856C10.6613 10.1847 10.216 9.481 9.52 8.889C8.824 8.297 7.984 8.00067 7 8C5.9 8 4.95833 8.39167 4.175 9.175C3.39167 9.95833 3 10.9 3 12C3 13.1 3.39167 14.0417 4.175 14.825C4.95833 15.6083 5.9 16 7 16Z" fill="#FEFEFE"/>
</svg>
