<svg width="24" height="24" viewBox="0 0 24 24" fill="none" xmlns="http://www.w3.org/2000/svg">
<path fill-rule="evenodd" clip-rule="evenodd" d="M21.2579 7.22732C21.907 6.36184 22.2579 5.30917 22.2579 4.22732C21.9179 0.228323 14.7479 -2.12168 12.2579 2.68732C12.1144 2.50488 11.9461 2.34333 11.7579 2.20732C11.0545 1.69386 10.2153 1.39912 9.34534 1.35994C8.47534 1.32077 7.61309 1.53889 6.86637 1.98705C6.11964 2.43521 5.52158 3.09353 5.14693 3.87971C4.77229 4.66589 4.63767 5.54506 4.75992 6.40732C4.16638 6.31565 3.55997 6.35453 2.98299 6.52126C2.40601 6.68798 1.87234 6.97855 1.41917 7.37269C0.966004 7.76683 0.604253 8.25506 0.359135 8.80335C0.114018 9.35164 -0.00856754 9.94679 -7.53495e-05 10.5473C0.0290222 11.3646 0.233654 12.1661 0.599925 12.8973C1.16992 14.0073 3.39992 14.8473 4.05992 14.5173C4.12058 14.4749 4.16407 14.4122 4.18253 14.3406C4.201 14.2689 4.19323 14.193 4.16062 14.1266C4.12801 14.0602 4.07272 14.0076 4.00473 13.9784C3.93675 13.9492 3.86056 13.9453 3.78992 13.9673C3.28706 13.9376 2.79668 13.7988 2.35287 13.5605C1.90906 13.3222 1.52246 12.9901 1.21992 12.5873C-0.220075 9.58732 1.81992 6.98732 4.58992 7.33732C4.87992 7.39732 5.15792 7.50932 5.40992 7.66732C5.51828 7.71212 5.63911 7.71657 5.75047 7.67988C5.86183 7.64318 5.95635 7.56777 6.01685 7.46734C6.07735 7.3669 6.09984 7.2481 6.08022 7.1325C6.0606 7.0169 6.00018 6.91217 5.90992 6.83732C5.65992 6.59732 5.71992 6.03732 5.72992 5.65732C5.76497 5.05326 5.96297 4.46996 6.30289 3.96938C6.64281 3.46881 7.11197 3.06964 7.66053 2.81429C8.20908 2.55893 8.81656 2.45691 9.41844 2.51907C10.0203 2.58123 10.5941 2.80524 11.0789 3.16732C11.8289 3.68732 11.5989 4.62732 12.3289 4.60732C12.7889 4.60732 12.8289 4.30732 13.2489 3.27732C15.0689 -0.531677 20.8879 1.35732 21.2479 4.27732C21.2379 5.23892 20.9111 6.17038 20.3179 6.92732C20.3179 6.92732 19.7679 7.25732 19.8279 7.39732C19.763 7.44649 19.7103 7.50996 19.6739 7.5828C19.6375 7.65564 19.6183 7.73589 19.6179 7.81732C19.6179 7.93732 19.9879 8.49732 20.4279 8.15732C23.2279 7.57732 23.9979 11.7673 22.2179 13.2773C21.3989 13.9356 20.4304 14.3821 19.3979 14.5773C19.3175 14.605 19.2498 14.661 19.2077 14.7349C19.1655 14.8088 19.1518 14.8956 19.1689 14.9789C19.1861 15.0622 19.233 15.1364 19.3009 15.1877C19.3688 15.2389 19.4531 15.2637 19.5379 15.2573C20.694 15.0596 21.7831 14.5787 22.7079 13.8573C24.9279 12.0573 24.1879 7.56732 21.2579 7.22732Z" fill="#272727"/>
<path fill-rule="evenodd" clip-rule="evenodd" d="M6.99999 14.8863C5.34999 17.3163 6.19999 20.8863 7.83999 21.8863C7.87282 21.9087 7.90973 21.9243 7.9486 21.9324C7.98748 21.9404 8.02756 21.9407 8.06656 21.9333C8.10556 21.9259 8.14271 21.9108 8.1759 21.8891C8.20909 21.8673 8.23766 21.8392 8.25999 21.8063C8.28231 21.7735 8.29795 21.7366 8.30602 21.6977C8.31408 21.6588 8.3144 21.6188 8.30697 21.5798C8.29955 21.5408 8.28451 21.5036 8.26272 21.4704C8.24093 21.4372 8.21282 21.4087 8.17999 21.3863C6.87999 20.4763 6.28999 17.3863 7.75999 15.3863C8.18732 14.7884 8.74392 14.2945 9.38841 13.9413C10.0329 13.5882 10.7487 13.3848 11.4826 13.3464C12.2165 13.3079 12.9497 13.4354 13.6275 13.7193C14.3054 14.0033 14.9105 14.4363 15.398 14.9863C17.808 17.8463 16.398 22.1863 12.128 22.6863C11.3522 22.7929 10.5628 22.7384 9.80899 22.5263C9.72547 22.5061 9.6374 22.5178 9.5621 22.5593C9.48681 22.6007 9.42976 22.6688 9.40217 22.7502C9.37458 22.8316 9.37845 22.9204 9.41303 22.999C9.4476 23.0777 9.51038 23.1406 9.58899 23.1753C10.4325 23.4538 11.3257 23.5492 12.209 23.4553C13.2641 23.4321 14.2908 23.109 15.1691 22.5238C16.0474 21.9387 16.7411 21.1157 17.169 20.1509C17.5968 19.1862 17.7413 18.1196 17.5855 17.0758C17.4297 16.0319 16.98 15.054 16.289 14.2563C15.7014 13.5682 14.9611 13.027 14.127 12.6762C13.2929 12.3253 12.3884 12.1745 11.4856 12.2357C10.5828 12.2969 9.7069 12.5685 8.92785 13.0288C8.1488 13.489 7.48924 14.1252 6.99999 14.8863Z" fill="#020202"/>
<path fill-rule="evenodd" clip-rule="evenodd" d="M10.51 20.2463C11.65 20.3163 13.01 17.1263 13.51 16.0963C13.661 15.9378 13.7559 15.734 13.78 15.5163C13.7735 15.4432 13.745 15.3739 13.6981 15.3175C13.6511 15.2611 13.5881 15.2204 13.5174 15.2008C13.4467 15.1812 13.3717 15.1837 13.3025 15.2079C13.2332 15.2321 13.173 15.2769 13.13 15.3363C12.89 15.6263 10.41 19.2263 10.47 19.3363C10.27 19.3363 9.26995 18.1663 9.11995 18.0663C8.96995 17.9663 8.53995 18.2463 8.76995 18.5763C9.15995 19.1663 9.83995 20.2163 10.51 20.2463Z" fill="#020202"/>
</svg>
